PathFileType	4	(X/Y/Z)	SUBJ32_0_static_RCNL2025.trc
DataRate	CameraRate	NumFrames	NumMarkers	Units	OrigDataRate	OrigDataStartFrame	OrigNumFrames
100	100	10	25	mm	100	43	114
Frame#	Time	R_Shoulder			L_Shoulder			C7			J_Notch			R_Elbow			L_Elbow			R_Wrist			L_Wrist			R_Asis			L_Asis			Sacral			Thoracic			Sternum			R_Thigh_Lateral			R_Knee_Lateral			R_Shank_Lateral			R_Ankle_Lateral			R_Heel			R_Toe			L_Thigh_Lateral			L_Knee_Lateral			L_Shank_Lateral			L_Ankle_Lateral			L_Heel			L_Toe		
		X1	Y1	Z1	X2	Y2	Z2	X3	Y3	Z3	X4	Y4	Z4	X5	Y5	Z5	X6	Y6	Z6	X7	Y7	Z7	X8	Y8	Z8	X9	Y9	Z9	X10	Y10	Z10	X11	Y11	Z11	X12	Y12	Z12	X13	Y13	Z13	X14	Y14	Z14	X15	Y15	Z15	X16	Y16	Z16	X17	Y17	Z17	X18	Y18	Z18	X19	Y19	Z19	X20	Y20	Z20	X21	Y21	Z21	X22	Y22	Z22	X23	Y23	Z23	X24	Y24	Z24	X25	Y25	Z25
43	0.42000000	-242.378220	1370.490234	-54.994453	-269.734680	1368.360352	-425.447601	-293.736603	1438.950195	-228.461258	-155.795044	1356.363403	-243.859329	-271.142456	1039.071533	54.727879	-303.413818	1052.985596	-531.004822	-202.208588	801.903107	75.647728	-233.144852	808.577301	-579.412903	-151.030991	914.414062	-123.798264	-158.625336	906.292969	-375.931580	-351.678009	954.214783	-241.024628	-366.053040	1204.585205	-233.752213	-68.849007	1132.949219	-247.945908	-270.434967	554.680664	-42.292797	-274.457458	456.127960	-84.782318	-303.465485	301.028778	-11.566441	-311.714600	68.557129	-114.657188	-357.440369	57.112228	-171.420944	-177.964981	49.955128	-132.051102	-265.640594	567.954956	-469.546906	-271.774292	473.416809	-424.431732	-310.075195	255.067383	-460.623108	-324.073608	62.006531	-379.600098	-364.596130	51.557941	-325.466797	-185.035767	40.603844	-379.965912
44	0.43000000	-242.607452	1370.405640	-55.065170	-269.992401	1368.416016	-425.497894	-294.007568	1438.956299	-228.531067	-155.879135	1356.365112	-243.961792	-271.227173	1038.958862	54.653618	-303.602722	1052.921509	-531.029602	-202.160110	801.890167	75.545378	-233.083519	808.533020	-579.332886	-151.172653	914.449219	-123.858658	-158.605820	906.238586	-375.956665	-351.695557	954.163330	-241.146866	-366.270416	1204.616577	-233.830109	-69.045921	1132.923218	-247.974060	-270.457764	554.661987	-42.392044	-274.541809	456.118896	-84.839424	-303.538208	301.058258	-11.611676	-311.775085	68.562744	-114.679062	-357.499298	57.086391	-171.457504	-177.911407	49.999557	-132.112061	-265.563568	567.993591	-469.607697	-271.708801	473.402222	-424.538177	-310.012787	255.044891	-460.610565	-324.077209	62.005215	-379.607635	-364.595032	51.534348	-325.561646	-185.078430	40.600956	-380.005127
45	0.44000000	-242.862793	1370.406616	-55.133072	-270.293243	1368.451294	-425.534393	-294.247925	1438.881714	-228.571915	-155.924545	1356.364868	-243.979980	-271.231445	1038.897949	54.526463	-303.701355	1052.860229	-530.933350	-202.001976	801.872925	75.472506	-232.984856	808.498383	-579.144043	-151.168671	914.409668	-123.971497	-158.487442	906.285034	-376.097321	-351.824158	954.172424	-241.292389	-366.311890	1204.495239	-233.920410	-69.058899	1132.938354	-248.020935	-270.417725	554.741516	-42.456940	-274.582947	456.076904	-84.933807	-303.470093	300.996521	-11.696986	-311.818787	68.625267	-114.656219	-357.481201	57.132496	-171.485077	-177.899796	50.003090	-132.120636	-265.476257	567.926758	-469.663910	-271.708588	473.343536	-424.561981	-310.041138	254.931183	-460.678680	-324.052765	62.045399	-379.637451	-364.584259	51.514034	-325.601624	-185.047607	40.646549	-380.043030
46	0.45000000	-243.045593	1370.328369	-55.192776	-270.472931	1368.509644	-425.559540	-294.485992	1438.889648	-228.532257	-156.029831	1356.323120	-244.082001	-271.292786	1038.812012	54.440815	-303.864441	1052.799072	-530.787415	-201.946205	801.779541	75.503016	-232.945847	808.436462	-578.917542	-151.234833	914.449219	-124.103516	-158.539932	906.301514	-376.175049	-351.852936	954.124817	-241.430023	-366.444427	1204.473145	-233.966263	-69.156731	1132.949341	-248.063919	-270.391693	554.726318	-42.467159	-274.438171	456.110199	-84.923958	-303.366882	300.992706	-11.757772	-311.817902	68.658852	-114.665382	-357.477997	57.135792	-171.486526	-177.842941	49.986614	-132.162415	-265.428894	567.920471	-469.697815	-271.624939	473.361176	-424.632538	-309.970367	254.965454	-460.707428	-324.042694	62.022507	-379.638885	-364.638306	51.513859	-325.553711	-185.059479	40.614586	-380.041412
47	0.46000000	-243.174271	1370.328613	-55.235268	-270.728851	1368.439941	-425.594360	-294.777832	1438.920532	-228.576309	-156.128769	1356.319214	-244.141663	-271.348907	1038.781006	54.359314	-304.008972	1052.709351	-530.768860	-201.932762	801.747040	75.240097	-232.946426	808.340332	-578.732513	-151.372452	914.400330	-124.142281	-158.565018	906.361755	-376.197998	-351.882812	954.064636	-241.528671	-366.663147	1204.519897	-234.025452	-69.263138	1133.007446	-248.159332	-270.379211	554.716125	-42.485233	-274.478210	456.110779	-84.986542	-303.360992	301.006775	-11.776111	-311.778595	68.612785	-114.685623	-357.478302	57.134472	-171.485519	-177.841080	49.981750	-132.175980	-265.464050	567.893799	-469.812500	-271.631653	473.347809	-424.711060	-309.922791	254.952499	-460.750031	-324.047668	62.026531	-379.640167	-364.581909	51.505665	-325.609131	-185.006989	40.634102	-379.992981
48	0.47000000	-243.302048	1370.300293	-55.355972	-270.883179	1368.417480	-425.635223	-295.038544	1438.825317	-228.640442	-156.286514	1356.293213	-244.213699	-271.319611	1038.735596	54.227142	-304.107574	1052.563599	-530.595520	-201.766182	801.848999	75.060211	-232.893555	808.215088	-578.428589	-151.415100	914.445618	-124.155266	-158.551712	906.346130	-376.208832	-351.936371	954.014221	-241.600677	-366.768158	1204.405518	-234.118378	-69.561455	1133.021484	-248.172394	-270.321472	554.708008	-42.524513	-274.239471	456.153503	-85.039162	-303.298676	301.016083	-11.770899	-311.753876	68.642662	-114.679916	-357.475006	57.100185	-171.470718	-177.897232	50.009979	-132.131393	-265.375702	567.906494	-469.912079	-271.623138	473.307251	-424.777863	-309.844208	254.875824	-460.789185	-324.091888	61.955769	-379.717621	-364.572357	51.502678	-325.616425	-185.003845	40.647488	-379.986115
49	0.48000000	-243.552826	1370.254150	-55.451420	-271.046753	1368.315430	-425.722748	-295.343292	1438.786011	-228.667969	-156.429916	1356.347290	-244.281525	-271.485291	1038.627808	54.126266	-304.304993	1052.501221	-530.477539	-201.684868	801.670227	75.051889	-232.923401	808.077148	-578.136505	-151.499313	914.465332	-124.192093	-158.641586	906.342285	-376.267914	-351.974213	954.005554	-241.706451	-366.917450	1204.369507	-234.107346	-69.675667	1133.141968	-248.229523	-270.222260	554.644592	-42.558155	-274.237030	456.051117	-85.053627	-303.252930	300.996735	-11.819439	-311.777161	68.638908	-114.687492	-357.485809	57.118557	-171.475769	-177.864105	50.001160	-132.142410	-265.301910	567.876648	-469.967712	-271.559204	473.194702	-424.868530	-309.899139	254.844284	-460.718567	-324.098724	61.956837	-379.697723	-364.629730	51.504166	-325.566742	-185.087143	40.620392	-380.006165
50	0.49000000	-243.746063	1370.140991	-55.542778	-271.197235	1368.322998	-425.748932	-295.580933	1438.744751	-228.626099	-156.652054	1356.389526	-244.337128	-271.541718	1038.520020	54.017807	-304.391388	1052.354370	-530.416443	-201.733139	801.641205	74.858212	-233.651573	807.443329	-577.552338	-151.636398	914.411133	-124.226830	-158.727310	906.288879	-376.407928	-352.051239	953.949219	-241.771591	-367.115997	1204.261841	-234.126251	-69.776253	1133.152954	-248.277206	-270.260315	554.726440	-42.682842	-274.263550	456.123688	-85.039124	-303.244629	301.054504	-11.854638	-311.784454	68.726990	-114.693108	-357.469177	57.092926	-171.499817	-177.840408	49.994228	-132.186691	-265.229980	567.797119	-470.020874	-271.522125	473.229492	-424.911194	-309.905457	254.840958	-460.718903	-324.098541	61.960815	-379.728546	-364.637451	51.516315	-325.583221	-185.095612	40.623615	-380.018219
51	0.50000000	-243.882111	1370.144897	-55.564537	-271.347961	1368.196655	-425.846985	-295.849274	1438.651489	-228.690720	-156.888580	1356.426025	-244.461853	-271.561188	1038.403442	53.901623	-304.565094	1052.193481	-530.255432	-201.635277	801.601562	74.674135	-233.701141	807.271576	-577.242554	-151.739487	914.433350	-124.342766	-158.191971	906.709106	-377.103851	-352.023468	953.890137	-241.807373	-367.268707	1204.270386	-234.139832	-69.877449	1133.214233	-248.347473	-270.200775	554.702209	-42.704216	-274.210724	456.204346	-85.161232	-303.163055	301.055298	-11.888833	-311.756714	68.688187	-114.693436	-357.438690	57.140141	-171.532135	-177.949127	50.023731	-132.139175	-265.218201	567.800110	-470.076843	-271.521729	473.235687	-424.912567	-309.736053	254.788620	-460.904266	-324.163727	61.970078	-379.780396	-364.630310	51.527370	-325.590088	-185.096252	40.645123	-379.986908
52	0.51000000	-244.087097	1370.091553	-55.619427	-271.600983	1368.135742	-425.880035	-296.159729	1438.672119	-228.700943	-157.047043	1356.520874	-244.447708	-271.622894	1038.335693	53.706436	-304.690491	1051.998657	-530.051575	-201.592743	801.425964	74.515631	-233.669868	807.058167	-576.817780	-151.794327	914.414368	-124.466408	-158.484375	906.472229	-376.792084	-352.079498	953.898682	-241.892166	-367.450165	1204.183960	-234.258652	-70.018372	1133.345581	-248.353516	-270.193817	554.718811	-42.721989	-274.228821	456.097229	-85.181549	-303.271729	301.116486	-12.003535	-311.743835	68.674568	-114.690025	-357.490601	57.127544	-171.527725	-177.935654	49.955837	-132.205444	-265.231781	567.796814	-470.106506	-271.449402	473.164856	-425.014832	-309.713226	254.782501	-460.903778	-324.162781	61.978298	-379.768036	-364.683197	51.538620	-325.641632	-185.070541	40.664581	-380.025299
